<?xml version="1.0" standalone="no"?>
<!DOCTYPE svg PUBLIC "-//W3C//DTD SVG 20010904//EN"
 "http://www.w3.org/TR/2001/REC-SVG-20010904/DTD/svg10.dtd">
<svg version="1.0" xmlns="http://www.w3.org/2000/svg"
 width="100.000000pt" height="100.000000pt" viewBox="0 0 175.000000 168.000000"
 preserveAspectRatio="xMidYMid meet">

<g transform="translate(0.000000,168.000000) scale(0.100000,-0.100000)"
fill="#000000" stroke="none">
<path d="M809 1516 c-29 -64 19 -163 100 -206 42 -22 17 -27 -32 -6 -45 19
-85 64 -106 121 l-18 48 -13 -39 c-22 -65 -17 -153 11 -209 32 -66 66 -90 113
-81 88 17 141 182 97 299 -9 24 -11 25 -48 11 -21 -7 -47 -13 -58 -14 -15 0
-13 5 13 20 18 11 35 27 38 35 10 24 -15 45 -52 45 -27 0 -37 -6 -45 -24z"/>
<path d="M393 1351 c14 -115 87 -211 173 -227 71 -13 70 0 -2 87 -73 88 -66
90 36 11 35 -28 68 -48 72 -46 19 12 6 74 -24 120 -42 61 -100 92 -192 101
l-69 6 6 -52z"/>
<path d="M1206 1389 c-59 -14 -105 -47 -137 -98 -28 -43 -39 -104 -20 -115 4
-3 26 9 47 27 21 19 61 49 89 67 l50 34 -72 -84 c-39 -47 -69 -89 -66 -94 10
-16 86 2 127 31 50 34 94 116 103 191 l6 52 -44 -1 c-24 -1 -62 -5 -83 -10z"/>
<path d="M197 1152 c-23 -25 -22 -34 9 -63 22 -21 35 -24 96 -24 l70 0 -38
-17 c-46 -21 -58 -21 -106 -4 -46 17 -48 8 -6 -39 60 -69 148 -95 188 -55 22
22 26 69 9 103 -17 32 -70 87 -101 103 -34 17 -38 17 -38 0 0 -8 -9 -24 -19
-37 l-19 -24 1 35 c2 40 -20 51 -46 22z"/>
<path d="M1380 1141 c-80 -53 -114 -147 -70 -191 25 -25 63 -25 115 -1 65 29
134 121 92 121 -8 0 -21 8 -30 18 -16 17 -15 18 18 14 29 -4 35 -1 35 15 0 11
-9 28 -20 38 -18 16 -21 17 -45 1 -40 -26 -58 -72 -52 -130 6 -48 5 -49 -8
-26 -20 35 -18 89 4 133 10 20 16 37 11 37 -4 0 -26 -13 -50 -29z"/>
<path d="M616 1044 c-22 -22 -20 -29 18 -72 32 -34 39 -37 90 -37 61 0 61 -14
0 -22 -29 -3 -51 2 -85 20 l-47 25 11 -34 c21 -69 97 -134 157 -134 33 0 60
35 60 80 0 55 -20 100 -65 144 l-37 37 -34 -38 c-33 -36 -34 -37 -21 -8 8 17
12 36 10 43 -6 17 -38 15 -57 -4z"/>
<path d="M1036 1026 c-20 -43 -20 -88 -1 -126 9 -17 11 -30 6 -30 -5 0 -19 21
-32 46 -19 41 -21 52 -11 92 l10 47 -42 -46 c-72 -76 -83 -182 -22 -210 33
-16 69 -5 112 34 34 29 73 95 74 123 0 6 -19 17 -42 25 l-43 14 38 3 c39 3 50
25 25 50 -23 23 -55 14 -72 -22z"/>
<path d="M127 873 c-32 -5 -31 -17 7 -93 24 -49 82 -90 128 -90 44 0 41 16
-14 64 -63 55 -53 59 25 12 l57 -35 0 28 c0 33 -31 76 -68 95 -32 16 -96 25
-135 19z"/>
<path d="M1510 871 c-70 -14 -120 -61 -120 -112 l0 -28 57 35 c78 47 88 43 25
-12 -29 -25 -50 -50 -46 -55 17 -28 118 10 148 56 17 26 49 106 44 110 -10 8
-79 11 -108 6z"/>
<path d="M420 842 c22 -80 70 -122 137 -122 l38 1 -50 45 -50 46 58 -30 57
-30 0 24 c0 13 -13 38 -29 56 -26 29 -35 33 -99 36 l-71 4 9 -30z"/>
<path d="M1159 831 c-39 -38 -51 -71 -26 -71 6 0 30 12 52 25 61 38 65 30 10
-20 l-50 -44 41 -1 c50 0 86 25 114 81 32 63 29 69 -41 69 -58 0 -64 -2 -100
-39z"/>
<path d="M250 530 c0 -69 3 -91 13 -88 6 3 13 19 15 36 3 29 6 32 38 32 24 0
34 5 34 15 0 10 -11 15 -35 15 -30 0 -35 3 -35 24 0 22 5 25 43 28 60 4 48 22
-18 26 l-55 3 0 -91z"/>
<path d="M420 531 l0 -91 50 0 c38 0 50 4 50 15 0 10 -11 15 -35 15 l-34 0 -3
72 c-2 46 -7 73 -15 76 -10 3 -13 -19 -13 -87z"/>
<path d="M575 595 c-54 -53 -18 -155 55 -155 45 0 67 15 80 55 31 93 -69 167
-135 100z m105 -37 c13 -25 13 -31 0 -55 -17 -31 -62 -42 -86 -22 -17 14 -19
62 -3 90 16 30 69 22 89 -13z"/>
<path d="M760 608 c0 -34 47 -163 60 -163 7 0 20 21 29 47 9 26 19 50 23 53 3
4 14 -18 24 -49 10 -31 23 -56 30 -56 6 0 23 38 38 84 30 97 30 96 13 96 -7 0
-22 -26 -32 -57 -19 -62 -16 -64 -49 20 -8 20 -19 37 -25 37 -5 0 -18 -25 -27
-55 -10 -30 -20 -55 -23 -55 -4 0 -13 23 -21 52 -14 47 -40 78 -40 46z"/>
<path d="M1040 530 l0 -91 55 3 c64 3 74 22 15 26 -35 3 -40 6 -40 28 0 21 5
24 36 24 24 0 34 4 31 13 -2 7 -16 11 -35 9 -28 -3 -32 -1 -32 22 0 22 5 25
43 28 60 4 48 22 -18 26 l-55 3 0 -91z"/>
<path d="M1217 613 c-4 -3 -7 -44 -7 -90 0 -67 3 -83 15 -83 10 0 15 11 15 35
0 19 3 35 8 35 4 0 21 -16 38 -37 40 -47 66 -37 29 11 -22 29 -23 35 -10 46
22 18 19 67 -4 80 -22 11 -74 14 -84 3z m71 -45 c-2 -15 -11 -24 -25 -26 -19
-3 -23 1 -23 22 0 21 5 26 26 26 21 0 25 -4 22 -22z"/>
<path d="M1396 604 c-31 -31 -11 -72 42 -89 15 -4 22 -13 20 -23 -3 -13 -14
-17 -46 -15 -43 2 -51 -4 -30 -25 22 -22 76 -15 94 13 21 33 10 62 -32 80 -19
8 -34 21 -34 31 0 13 6 15 35 10 27 -5 35 -4 35 7 0 29 -59 36 -84 11z"/>
<path d="M430 349 c-105 -11 -122 -17 -98 -30 10 -6 15 -16 11 -25 -5 -14 -1
-15 28 -8 70 16 299 8 391 -14 154 -38 273 -96 307 -152 21 -35 31 -30 31 16
0 69 -121 155 -275 194 -92 23 -276 32 -395 19z"/>
<path d="M990 344 c-64 -8 -68 -14 -25 -36 36 -19 58 -21 226 -22 183 -1 186
-1 196 21 8 16 8 25 1 29 -12 8 -348 14 -398 8z"/>
<path d="M654 206 c-25 -25 -34 -43 -34 -68 0 -48 9 -52 34 -16 11 17 50 47
86 67 59 32 62 36 40 42 -59 16 -91 10 -126 -25z"/>
<path d="M850 200 c-12 -9 -8 -17 25 -46 66 -58 153 -91 170 -64 3 6 -2 10
-13 10 -22 0 -98 48 -131 84 -27 29 -30 30 -51 16z"/>
<path d="M772 139 c-18 -16 -46 -32 -62 -36 -17 -3 -27 -9 -24 -14 13 -21 92
-2 137 33 18 13 18 14 0 30 -17 15 -20 15 -51 -13z"/>
</g>
</svg>
